# xmcd CD database file
#
# Track frame offsets:
#	150
#	11250
#	22950
#	44625
#	60300
#	75075
#	88725
#	114600
#	133575
#	147450
#	156225
#	173475
#	183975
#	199275
#	208800
#	223275
#	241800
#
# Disc length: 3584 seconds
#
# Revision: 1
# Processed by: cddbd v1.5.1PL0 Copyright (c) Steve Scherf et al.
# Submitted via: CDex 1.51
#
DISCID=e70dfe11
DTITLE=OLUN - Zahraj mi muzicka pekne
DYEAR=1995
DGENRE=National Folk
TTITLE0=Vrcharska krutena
TTITLE1=Rozmarin zeleny, scepeny
TTITLE2=Ved je zdola Ponik
TTITLE3=Citotota
TTITLE4=Kopanice, kopanice
TTITLE5=Za tyma nasima humny
TTITLE6=Javore, siroke listy mas
TTITLE7=Strigonska zabava
TTITLE8=Sadzila Anicka
TTITLE9=Zahraj mi muzicka pekne
TTITLE10=Keby ste vedeli
TTITLE11=A my chlapci
TTITLE12=Popod stolicny dom
TTITLE13=Taky frajer sa mi paci
TTITLE14=Budel som ta budel
TTITLE15=Samudzovske dzifcata
TTITLE16=Tance Romov zo Sarisa
EXTD=YEAR: 1995
EXTT0=
EXTT1=
EXTT2=
EXTT3=
EXTT4=
EXTT5=
EXTT6=
EXTT7=
EXTT8=
EXTT9=
EXTT10=
EXTT11=
EXTT12=
EXTT13=
EXTT14=
EXTT15=
EXTT16=
PLAYORDER=
